<svg width="454" height="135" viewBox="0 0 454 135" fill="none" xmlns="http://www.w3.org/2000/svg">
<rect width="454" height="132" fill="#F4F4F4"/>
<path d="M65.03 35.82V48.15H48.29V99H32.9V48.15H16.16V35.82H65.03ZM103.624 48.24C109.384 48.24 114.004 50.16 117.484 54C120.964 57.78 122.704 63 122.704 69.66V99H107.404V71.73C107.404 68.37 106.534 65.76 104.794 63.9C103.054 62.04 100.714 61.11 97.7738 61.11C94.8338 61.11 92.4938 62.04 90.7538 63.9C89.0138 65.76 88.1438 68.37 88.1438 71.73V99H72.7538V32.4H88.1438V55.53C89.7038 53.31 91.8338 51.54 94.5338 50.22C97.2338 48.9 100.264 48.24 103.624 48.24ZM180.738 73.08C180.738 74.52 180.648 76.02 180.468 77.58H145.638C145.878 80.7 146.868 83.1 148.608 84.78C150.408 86.4 152.598 87.21 155.178 87.21C159.018 87.21 161.688 85.59 163.188 82.35H179.568C178.728 85.65 177.198 88.62 174.978 91.26C172.818 93.9 170.088 95.97 166.788 97.47C163.488 98.97 159.798 99.72 155.718 99.72C150.798 99.72 146.418 98.67 142.578 96.57C138.738 94.47 135.738 91.47 133.578 87.57C131.418 83.67 130.338 79.11 130.338 73.89C130.338 68.67 131.388 64.11 133.488 60.21C135.648 56.31 138.648 53.31 142.488 51.21C146.328 49.11 150.738 48.06 155.718 48.06C160.578 48.06 164.898 49.08 168.678 51.12C172.458 53.16 175.398 56.07 177.498 59.85C179.658 63.63 180.738 68.04 180.738 73.08ZM164.988 69.03C164.988 66.39 164.088 64.29 162.288 62.73C160.488 61.17 158.238 60.39 155.538 60.39C152.958 60.39 150.768 61.14 148.968 62.64C147.228 64.14 146.148 66.27 145.728 69.03H164.988ZM256.08 56.16C256.08 59.82 255.24 63.18 253.56 66.24C251.88 69.24 249.3 71.67 245.82 73.53C242.34 75.39 238.02 76.32 232.86 76.32H223.32V99H207.93V35.82H232.86C237.9 35.82 242.16 36.69 245.64 38.43C249.12 40.17 251.73 42.57 253.47 45.63C255.21 48.69 256.08 52.2 256.08 56.16ZM231.69 64.08C234.63 64.08 236.82 63.39 238.26 62.01C239.7 60.63 240.42 58.68 240.42 56.16C240.42 53.64 239.7 51.69 238.26 50.31C236.82 48.93 234.63 48.24 231.69 48.24H223.32V64.08H231.69ZM271.832 43.56C269.132 43.56 266.912 42.78 265.172 41.22C263.492 39.6 262.652 37.62 262.652 35.28C262.652 32.88 263.492 30.9 265.172 29.34C266.912 27.72 269.132 26.91 271.832 26.91C274.472 26.91 276.632 27.72 278.312 29.34C280.052 30.9 280.922 32.88 280.922 35.28C280.922 37.62 280.052 39.6 278.312 41.22C276.632 42.78 274.472 43.56 271.832 43.56ZM279.482 48.78V99H264.092V48.78H279.482ZM306.025 32.4V99H290.635V32.4H306.025ZM332.568 32.4V99H317.178V32.4H332.568ZM340.661 73.8C340.661 68.64 341.621 64.11 343.541 60.21C345.521 56.31 348.191 53.31 351.551 51.21C354.911 49.11 358.661 48.06 362.801 48.06C366.341 48.06 369.431 48.78 372.071 50.22C374.771 51.66 376.841 53.55 378.281 55.89V48.78H393.671V99H378.281V91.89C376.781 94.23 374.681 96.12 371.981 97.56C369.341 99 366.251 99.72 362.711 99.72C358.631 99.72 354.911 98.67 351.551 96.57C348.191 94.41 345.521 91.38 343.541 87.48C341.621 83.52 340.661 78.96 340.661 73.8ZM378.281 73.89C378.281 70.05 377.201 67.02 375.041 64.8C372.941 62.58 370.361 61.47 367.301 61.47C364.241 61.47 361.631 62.58 359.471 64.8C357.371 66.96 356.321 69.96 356.321 73.8C356.321 77.64 357.371 80.7 359.471 82.98C361.631 85.2 364.241 86.31 367.301 86.31C370.361 86.31 372.941 85.2 375.041 82.98C377.201 80.76 378.281 77.73 378.281 73.89ZM420.195 57.15C421.995 54.39 424.245 52.23 426.945 50.67C429.645 49.05 432.645 48.24 435.945 48.24V64.53H431.715C427.875 64.53 424.995 65.37 423.075 67.05C421.155 68.67 420.195 71.55 420.195 75.69V99H404.805V48.78H420.195V57.15Z" fill="#003150"/>
<rect x="261" y="23" width="21" height="23" fill="#F4F4F4"/>
<rect x="264.1" y="32.5" width="15.4" height="13" fill="#003150"/>
<rect x="250" y="102" width="95" height="8" rx="2" fill="#003150"/>
<rect x="238" y="112" width="119" height="8" rx="2" fill="#003150"/>
<rect x="345" y="30" width="95" height="8" rx="2" transform="rotate(-180 345 30)" fill="#003150"/>
<rect x="357" y="20" width="119" height="8" rx="2" transform="rotate(-180 357 20)" fill="#003150"/>
</svg>
