<svg width="454" height="132" viewBox="0 0 454 132" fill="none" xmlns="http://www.w3.org/2000/svg">
<rect width="454" height="132" fill="#F4F4F4"/>
<path d="M78.78 38.28C78.54 41.34 78.36 44.28 78.24 47.1C78.18 49.92 78.15 52.08 78.15 53.58C78.15 54.9 78.18 56.16 78.24 57.36C78.3 58.56 78.36 59.58 78.42 60.42H76.35C75.39 55.38 74.16 51.39 72.66 48.45C71.22 45.51 69.48 43.44 67.44 42.24C65.4 40.98 63 40.35 60.24 40.35H58.17V91.74C58.17 94.14 58.41 95.94 58.89 97.14C59.43 98.34 60.39 99.15 61.77 99.57C63.15 99.93 65.16 100.14 67.8 100.2V102C65.94 101.94 63.45 101.88 60.33 101.82C57.27 101.76 54.06 101.73 50.7 101.73C47.4 101.73 44.28 101.76 41.34 101.82C38.4 101.88 36.03 101.94 34.23 102V100.2C36.93 100.14 38.97 99.93 40.35 99.57C41.73 99.15 42.66 98.34 43.14 97.14C43.62 95.94 43.86 94.14 43.86 91.74V40.35H41.88C39.12 40.35 36.72 40.98 34.68 42.24C32.64 43.44 30.9 45.51 29.46 48.45C28.02 51.33 26.76 55.32 25.68 60.42H23.61C23.73 59.58 23.79 58.56 23.79 57.36C23.85 56.16 23.88 54.9 23.88 53.58C23.88 52.08 23.82 49.92 23.7 47.1C23.64 44.28 23.49 41.34 23.25 38.28C26.01 38.34 29.01 38.4 32.25 38.46C35.55 38.52 38.85 38.55 42.15 38.55C45.45 38.55 48.42 38.55 51.06 38.55C53.76 38.55 56.73 38.55 59.97 38.55C63.27 38.55 66.57 38.52 69.87 38.46C73.17 38.4 76.14 38.34 78.78 38.28ZM101.02 31.62V62.58C102.52 59.46 104.53 57.3 107.05 56.1C109.63 54.84 112.51 54.21 115.69 54.21C118.27 54.21 120.34 54.54 121.9 55.2C123.46 55.8 124.69 56.64 125.59 57.72C126.61 58.86 127.33 60.33 127.75 62.13C128.23 63.93 128.47 66.36 128.47 69.42V93.63C128.47 96.15 128.89 97.86 129.73 98.76C130.63 99.66 132.13 100.11 134.23 100.11V102C133.09 101.94 131.35 101.88 129.01 101.82C126.73 101.7 124.51 101.64 122.35 101.64C120.01 101.64 117.73 101.7 115.51 101.82C113.35 101.88 111.73 101.94 110.65 102V100.11C112.45 100.11 113.71 99.66 114.43 98.76C115.15 97.86 115.51 96.15 115.51 93.63V65.64C115.51 64.14 115.36 62.85 115.06 61.77C114.76 60.63 114.19 59.76 113.35 59.16C112.57 58.5 111.43 58.17 109.93 58.17C108.31 58.17 106.81 58.62 105.43 59.52C104.11 60.36 103.03 61.56 102.19 63.12C101.41 64.68 101.02 66.48 101.02 68.52V93.63C101.02 96.15 101.38 97.86 102.1 98.76C102.82 99.66 104.08 100.11 105.88 100.11V102C104.8 101.94 103.21 101.88 101.11 101.82C99.0098 101.7 96.8798 101.64 94.7198 101.64C92.3798 101.64 90.0098 101.7 87.6098 101.82C85.2698 101.88 83.4998 101.94 82.2998 102V100.11C84.3998 100.11 85.8698 99.66 86.7098 98.76C87.6098 97.86 88.0598 96.15 88.0598 93.63V42.42C88.0598 39.72 87.6398 37.74 86.7998 36.48C86.0198 35.16 84.5198 34.5 82.2998 34.5V32.61C84.2198 32.79 86.0798 32.88 87.8798 32.88C90.3398 32.88 92.6798 32.79 94.8998 32.61C97.1198 32.37 99.1598 32.04 101.02 31.62ZM160.726 54.21C166.006 54.21 170.146 55.77 173.146 58.89C176.146 62.01 177.646 67.11 177.646 74.19H148.036L147.856 72.48H166.306C166.366 69.54 166.186 66.84 165.766 64.38C165.346 61.86 164.686 59.85 163.786 58.35C162.886 56.85 161.686 56.1 160.186 56.1C158.086 56.1 156.286 57.42 154.786 60.06C153.346 62.7 152.476 67.08 152.176 73.2L152.446 73.74C152.386 74.46 152.326 75.21 152.266 75.99C152.266 76.77 152.266 77.58 152.266 78.42C152.266 82.56 152.836 85.92 153.976 88.5C155.176 91.08 156.676 92.97 158.476 94.17C160.276 95.31 162.106 95.88 163.966 95.88C165.226 95.88 166.516 95.7 167.836 95.34C169.216 94.92 170.596 94.2 171.976 93.18C173.356 92.1 174.646 90.6 175.846 88.68L177.466 89.22C176.746 91.5 175.606 93.72 174.046 95.88C172.486 98.04 170.506 99.81 168.106 101.19C165.706 102.57 162.826 103.26 159.466 103.26C155.386 103.26 151.786 102.39 148.666 100.65C145.546 98.91 143.086 96.27 141.286 92.73C139.546 89.19 138.676 84.69 138.676 79.23C138.676 73.65 139.606 69 141.466 65.28C143.386 61.56 145.996 58.8 149.296 57C152.656 55.14 156.466 54.21 160.726 54.21ZM204.763 38.28C206.263 38.34 208.273 38.4 210.793 38.46C213.373 38.52 215.923 38.55 218.443 38.55C221.323 38.55 224.113 38.52 226.813 38.46C229.513 38.4 231.433 38.37 232.573 38.37C240.913 38.37 247.153 40.02 251.293 43.32C255.433 46.62 257.503 50.88 257.503 56.1C257.503 58.26 257.083 60.54 256.243 62.94C255.403 65.28 253.963 67.47 251.923 69.51C249.943 71.49 247.213 73.11 243.733 74.37C240.253 75.63 235.873 76.26 230.593 76.26H221.413V74.46H229.693C233.233 74.46 235.903 73.65 237.703 72.03C239.563 70.41 240.823 68.28 241.483 65.64C242.203 63 242.563 60.15 242.563 57.09C242.563 51.39 241.723 47.13 240.043 44.31C238.363 41.49 235.483 40.08 231.403 40.08C229.063 40.08 227.533 40.59 226.813 41.61C226.153 42.63 225.823 44.7 225.823 47.82V91.92C225.823 94.26 226.063 96 226.543 97.14C227.023 98.28 227.953 99.03 229.333 99.39C230.713 99.75 232.753 99.96 235.453 100.02V102C233.593 101.94 231.193 101.88 228.253 101.82C225.313 101.76 222.223 101.73 218.983 101.73C216.403 101.73 213.883 101.76 211.423 101.82C208.963 101.88 206.743 101.94 204.763 102V100.2C206.683 100.08 208.123 99.84 209.083 99.48C210.043 99.12 210.673 98.4 210.973 97.32C211.333 96.24 211.513 94.62 211.513 92.46V47.82C211.513 45.6 211.333 43.98 210.973 42.96C210.673 41.88 210.013 41.16 208.993 40.8C208.033 40.38 206.623 40.14 204.763 40.08V38.28ZM273.219 32.25C275.739 32.25 277.719 32.88 279.159 34.14C280.659 35.34 281.409 37.02 281.409 39.18C281.409 41.34 280.659 43.05 279.159 44.31C277.719 45.51 275.739 46.11 273.219 46.11C270.699 46.11 268.689 45.51 267.189 44.31C265.749 43.05 265.029 41.34 265.029 39.18C265.029 37.02 265.749 35.34 267.189 34.14C268.689 32.88 270.699 32.25 273.219 32.25ZM280.239 54.48V93.63C280.239 96.15 280.659 97.86 281.499 98.76C282.399 99.66 283.899 100.11 285.999 100.11V102C284.919 101.94 283.239 101.88 280.959 101.82C278.679 101.7 276.369 101.64 274.029 101.64C271.689 101.64 269.319 101.7 266.919 101.82C264.519 101.88 262.719 101.94 261.519 102V100.11C263.619 100.11 265.089 99.66 265.929 98.76C266.829 97.86 267.279 96.15 267.279 93.63V65.28C267.279 62.58 266.859 60.6 266.019 59.34C265.239 58.02 263.739 57.36 261.519 57.36V55.47C263.439 55.65 265.299 55.74 267.099 55.74C269.619 55.74 271.959 55.65 274.119 55.47C276.339 55.23 278.379 54.9 280.239 54.48ZM308.268 31.53V93.63C308.268 96.15 308.688 97.86 309.528 98.76C310.428 99.66 311.928 100.11 314.028 100.11V102C312.888 101.94 311.178 101.88 308.898 101.82C306.618 101.7 304.308 101.64 301.968 101.64C299.628 101.64 297.258 101.7 294.858 101.82C292.518 101.88 290.748 101.94 289.548 102V100.11C291.648 100.11 293.118 99.66 293.958 98.76C294.858 97.86 295.308 96.15 295.308 93.63V42.33C295.308 39.63 294.888 37.65 294.048 36.39C293.268 35.07 291.768 34.41 289.548 34.41V32.52C291.468 32.7 293.328 32.79 295.128 32.79C297.588 32.79 299.928 32.7 302.148 32.52C304.368 32.28 306.408 31.95 308.268 31.53ZM336.745 31.53V93.63C336.745 96.15 337.165 97.86 338.005 98.76C338.905 99.66 340.405 100.11 342.505 100.11V102C341.365 101.94 339.655 101.88 337.375 101.82C335.095 101.7 332.785 101.64 330.445 101.64C328.105 101.64 325.735 101.7 323.335 101.82C320.995 101.88 319.225 101.94 318.025 102V100.11C320.125 100.11 321.595 99.66 322.435 98.76C323.335 97.86 323.785 96.15 323.785 93.63V42.33C323.785 39.63 323.365 37.65 322.525 36.39C321.745 35.07 320.245 34.41 318.025 34.41V32.52C319.945 32.7 321.805 32.79 323.605 32.79C326.065 32.79 328.405 32.7 330.625 32.52C332.845 32.28 334.885 31.95 336.745 31.53ZM358.754 102.63C356.054 102.63 353.804 102.12 352.004 101.1C350.204 100.08 348.884 98.73 348.044 97.05C347.204 95.31 346.784 93.42 346.784 91.38C346.784 88.8 347.354 86.7 348.494 85.08C349.694 83.46 351.224 82.14 353.084 81.12C354.944 80.1 356.894 79.26 358.934 78.6C361.034 77.94 363.014 77.31 364.874 76.71C366.794 76.05 368.324 75.3 369.464 74.46C370.664 73.56 371.264 72.42 371.264 71.04V64.02C371.264 62.46 370.994 61.08 370.454 59.88C369.974 58.62 369.194 57.66 368.114 57C367.094 56.34 365.744 56.01 364.064 56.01C362.864 56.01 361.664 56.19 360.464 56.55C359.264 56.85 358.274 57.39 357.494 58.17C359.174 58.77 360.464 59.7 361.364 60.96C362.324 62.16 362.804 63.54 362.804 65.1C362.804 67.14 362.084 68.76 360.644 69.96C359.264 71.16 357.614 71.76 355.694 71.76C353.534 71.76 351.884 71.1 350.744 69.78C349.664 68.4 349.124 66.75 349.124 64.83C349.124 63.09 349.544 61.65 350.384 60.51C351.284 59.37 352.514 58.29 354.074 57.27C355.754 56.31 357.764 55.56 360.104 55.02C362.504 54.48 365.084 54.21 367.844 54.21C370.604 54.21 373.094 54.51 375.314 55.11C377.534 55.65 379.394 56.67 380.894 58.17C382.274 59.55 383.174 61.26 383.594 63.3C384.014 65.28 384.224 67.8 384.224 70.86V95.34C384.224 96.84 384.374 97.89 384.674 98.49C384.974 99.03 385.484 99.3 386.204 99.3C386.744 99.3 387.254 99.15 387.734 98.85C388.274 98.55 388.844 98.19 389.444 97.77L390.344 99.3C389.084 100.38 387.614 101.22 385.934 101.82C384.314 102.36 382.484 102.63 380.444 102.63C378.224 102.63 376.454 102.33 375.134 101.73C373.814 101.07 372.854 100.2 372.254 99.12C371.714 98.04 371.444 96.78 371.444 95.34C370.004 97.62 368.264 99.42 366.224 100.74C364.184 102 361.694 102.63 358.754 102.63ZM365.144 96.87C366.344 96.87 367.424 96.6 368.384 96.06C369.404 95.46 370.364 94.5 371.264 93.18V74.73C370.724 75.63 369.974 76.44 369.014 77.16C368.054 77.88 367.034 78.63 365.954 79.41C364.874 80.13 363.824 80.94 362.804 81.84C361.844 82.74 361.064 83.85 360.464 85.17C359.864 86.49 359.564 88.08 359.564 89.94C359.564 92.28 360.074 94.02 361.094 95.16C362.114 96.3 363.464 96.87 365.144 96.87ZM423.876 54.21C425.796 54.21 427.356 54.63 428.556 55.47C429.756 56.25 430.626 57.27 431.166 58.53C431.766 59.79 432.066 61.11 432.066 62.49C432.066 64.71 431.406 66.54 430.086 67.98C428.826 69.36 427.146 70.05 425.046 70.05C422.946 70.05 421.296 69.54 420.096 68.52C418.956 67.44 418.386 66.03 418.386 64.29C418.386 62.61 418.746 61.23 419.466 60.15C420.246 59.01 421.206 58.05 422.346 57.27C421.506 57.03 420.666 57.06 419.826 57.36C418.686 57.54 417.606 58.02 416.586 58.8C415.566 59.52 414.696 60.45 413.976 61.59C413.256 62.67 412.686 63.87 412.266 65.19C411.846 66.45 411.636 67.68 411.636 68.88V92.73C411.636 95.61 412.326 97.56 413.706 98.58C415.146 99.6 417.276 100.11 420.096 100.11V102C418.716 101.94 416.706 101.88 414.066 101.82C411.426 101.7 408.666 101.64 405.786 101.64C403.386 101.64 400.956 101.7 398.496 101.82C396.036 101.88 394.176 101.94 392.916 102V100.11C395.016 100.11 396.486 99.66 397.326 98.76C398.226 97.86 398.676 96.15 398.676 93.63V65.28C398.676 62.58 398.256 60.6 397.416 59.34C396.636 58.02 395.136 57.36 392.916 57.36V55.47C394.836 55.65 396.696 55.74 398.496 55.74C401.016 55.74 403.356 55.65 405.516 55.47C407.736 55.23 409.776 54.9 411.636 54.48V62.85C412.356 61.23 413.316 59.76 414.516 58.44C415.716 57.12 417.096 56.1 418.656 55.38C420.216 54.6 421.956 54.21 423.876 54.21Z" fill="#003150"/>
<rect x="261" y="23" width="21" height="23" fill="#F4F4F4"/>
<rect x="264.1" y="32.5" width="15.4" height="13" fill="#003150"/>
<rect x="250" y="107" width="95" height="8" rx="2" fill="#003150"/>
<rect x="238" y="120" width="119" height="8" rx="2" fill="#003150"/>
<rect x="345" y="28" width="95" height="8" rx="2" transform="rotate(-180 345 28)" fill="#003150"/>
<rect x="357" y="15" width="119" height="8" rx="2" transform="rotate(-180 357 15)" fill="#003150"/>
</svg>
