<svg width="454" height="376" viewBox="0 0 454 376" fill="none" xmlns="http://www.w3.org/2000/svg">
<rect width="454" height="376" fill="white"/>
<path d="M78.78 160.28C78.54 163.34 78.36 166.28 78.24 169.1C78.18 171.92 78.15 174.08 78.15 175.58C78.15 176.9 78.18 178.16 78.24 179.36C78.3 180.56 78.36 181.58 78.42 182.42H76.35C75.39 177.38 74.16 173.39 72.66 170.45C71.22 167.51 69.48 165.44 67.44 164.24C65.4 162.98 63 162.35 60.24 162.35H58.17V213.74C58.17 216.14 58.41 217.94 58.89 219.14C59.43 220.34 60.39 221.15 61.77 221.57C63.15 221.93 65.16 222.14 67.8 222.2V224C65.94 223.94 63.45 223.88 60.33 223.82C57.27 223.76 54.06 223.73 50.7 223.73C47.4 223.73 44.28 223.76 41.34 223.82C38.4 223.88 36.03 223.94 34.23 224V222.2C36.93 222.14 38.97 221.93 40.35 221.57C41.73 221.15 42.66 220.34 43.14 219.14C43.62 217.94 43.86 216.14 43.86 213.74V162.35H41.88C39.12 162.35 36.72 162.98 34.68 164.24C32.64 165.44 30.9 167.51 29.46 170.45C28.02 173.33 26.76 177.32 25.68 182.42H23.61C23.73 181.58 23.79 180.56 23.79 179.36C23.85 178.16 23.88 176.9 23.88 175.58C23.88 174.08 23.82 171.92 23.7 169.1C23.64 166.28 23.49 163.34 23.25 160.28C26.01 160.34 29.01 160.4 32.25 160.46C35.55 160.52 38.85 160.55 42.15 160.55C45.45 160.55 48.42 160.55 51.06 160.55C53.76 160.55 56.73 160.55 59.97 160.55C63.27 160.55 66.57 160.52 69.87 160.46C73.17 160.4 76.14 160.34 78.78 160.28ZM101.02 153.62V184.58C102.52 181.46 104.53 179.3 107.05 178.1C109.63 176.84 112.51 176.21 115.69 176.21C118.27 176.21 120.34 176.54 121.9 177.2C123.46 177.8 124.69 178.64 125.59 179.72C126.61 180.86 127.33 182.33 127.75 184.13C128.23 185.93 128.47 188.36 128.47 191.42V215.63C128.47 218.15 128.89 219.86 129.73 220.76C130.63 221.66 132.13 222.11 134.23 222.11V224C133.09 223.94 131.35 223.88 129.01 223.82C126.73 223.7 124.51 223.64 122.35 223.64C120.01 223.64 117.73 223.7 115.51 223.82C113.35 223.88 111.73 223.94 110.65 224V222.11C112.45 222.11 113.71 221.66 114.43 220.76C115.15 219.86 115.51 218.15 115.51 215.63V187.64C115.51 186.14 115.36 184.85 115.06 183.77C114.76 182.63 114.19 181.76 113.35 181.16C112.57 180.5 111.43 180.17 109.93 180.17C108.31 180.17 106.81 180.62 105.43 181.52C104.11 182.36 103.03 183.56 102.19 185.12C101.41 186.68 101.02 188.48 101.02 190.52V215.63C101.02 218.15 101.38 219.86 102.1 220.76C102.82 221.66 104.08 222.11 105.88 222.11V224C104.8 223.94 103.21 223.88 101.11 223.82C99.0098 223.7 96.8798 223.64 94.7198 223.64C92.3798 223.64 90.0098 223.7 87.6098 223.82C85.2698 223.88 83.4998 223.94 82.2998 224V222.11C84.3998 222.11 85.8698 221.66 86.7098 220.76C87.6098 219.86 88.0598 218.15 88.0598 215.63V164.42C88.0598 161.72 87.6398 159.74 86.7998 158.48C86.0198 157.16 84.5198 156.5 82.2998 156.5V154.61C84.2198 154.79 86.0798 154.88 87.8798 154.88C90.3398 154.88 92.6798 154.79 94.8998 154.61C97.1198 154.37 99.1598 154.04 101.02 153.62ZM160.726 176.21C166.006 176.21 170.146 177.77 173.146 180.89C176.146 184.01 177.646 189.11 177.646 196.19H148.036L147.856 194.48H166.306C166.366 191.54 166.186 188.84 165.766 186.38C165.346 183.86 164.686 181.85 163.786 180.35C162.886 178.85 161.686 178.1 160.186 178.1C158.086 178.1 156.286 179.42 154.786 182.06C153.346 184.7 152.476 189.08 152.176 195.2L152.446 195.74C152.386 196.46 152.326 197.21 152.266 197.99C152.266 198.77 152.266 199.58 152.266 200.42C152.266 204.56 152.836 207.92 153.976 210.5C155.176 213.08 156.676 214.97 158.476 216.17C160.276 217.31 162.106 217.88 163.966 217.88C165.226 217.88 166.516 217.7 167.836 217.34C169.216 216.92 170.596 216.2 171.976 215.18C173.356 214.1 174.646 212.6 175.846 210.68L177.466 211.22C176.746 213.5 175.606 215.72 174.046 217.88C172.486 220.04 170.506 221.81 168.106 223.19C165.706 224.57 162.826 225.26 159.466 225.26C155.386 225.26 151.786 224.39 148.666 222.65C145.546 220.91 143.086 218.27 141.286 214.73C139.546 211.19 138.676 206.69 138.676 201.23C138.676 195.65 139.606 191 141.466 187.28C143.386 183.56 145.996 180.8 149.296 179C152.656 177.14 156.466 176.21 160.726 176.21ZM204.763 160.28C206.263 160.34 208.273 160.4 210.793 160.46C213.373 160.52 215.923 160.55 218.443 160.55C221.323 160.55 224.113 160.52 226.813 160.46C229.513 160.4 231.433 160.37 232.573 160.37C240.913 160.37 247.153 162.02 251.293 165.32C255.433 168.62 257.503 172.88 257.503 178.1C257.503 180.26 257.083 182.54 256.243 184.94C255.403 187.28 253.963 189.47 251.923 191.51C249.943 193.49 247.213 195.11 243.733 196.37C240.253 197.63 235.873 198.26 230.593 198.26H221.413V196.46H229.693C233.233 196.46 235.903 195.65 237.703 194.03C239.563 192.41 240.823 190.28 241.483 187.64C242.203 185 242.563 182.15 242.563 179.09C242.563 173.39 241.723 169.13 240.043 166.31C238.363 163.49 235.483 162.08 231.403 162.08C229.063 162.08 227.533 162.59 226.813 163.61C226.153 164.63 225.823 166.7 225.823 169.82V213.92C225.823 216.26 226.063 218 226.543 219.14C227.023 220.28 227.953 221.03 229.333 221.39C230.713 221.75 232.753 221.96 235.453 222.02V224C233.593 223.94 231.193 223.88 228.253 223.82C225.313 223.76 222.223 223.73 218.983 223.73C216.403 223.73 213.883 223.76 211.423 223.82C208.963 223.88 206.743 223.94 204.763 224V222.2C206.683 222.08 208.123 221.84 209.083 221.48C210.043 221.12 210.673 220.4 210.973 219.32C211.333 218.24 211.513 216.62 211.513 214.46V169.82C211.513 167.6 211.333 165.98 210.973 164.96C210.673 163.88 210.013 163.16 208.993 162.8C208.033 162.38 206.623 162.14 204.763 162.08V160.28ZM273.219 154.25C275.739 154.25 277.719 154.88 279.159 156.14C280.659 157.34 281.409 159.02 281.409 161.18C281.409 163.34 280.659 165.05 279.159 166.31C277.719 167.51 275.739 168.11 273.219 168.11C270.699 168.11 268.689 167.51 267.189 166.31C265.749 165.05 265.029 163.34 265.029 161.18C265.029 159.02 265.749 157.34 267.189 156.14C268.689 154.88 270.699 154.25 273.219 154.25ZM280.239 176.48V215.63C280.239 218.15 280.659 219.86 281.499 220.76C282.399 221.66 283.899 222.11 285.999 222.11V224C284.919 223.94 283.239 223.88 280.959 223.82C278.679 223.7 276.369 223.64 274.029 223.64C271.689 223.64 269.319 223.7 266.919 223.82C264.519 223.88 262.719 223.94 261.519 224V222.11C263.619 222.11 265.089 221.66 265.929 220.76C266.829 219.86 267.279 218.15 267.279 215.63V187.28C267.279 184.58 266.859 182.6 266.019 181.34C265.239 180.02 263.739 179.36 261.519 179.36V177.47C263.439 177.65 265.299 177.74 267.099 177.74C269.619 177.74 271.959 177.65 274.119 177.47C276.339 177.23 278.379 176.9 280.239 176.48ZM308.268 153.53V215.63C308.268 218.15 308.688 219.86 309.528 220.76C310.428 221.66 311.928 222.11 314.028 222.11V224C312.888 223.94 311.178 223.88 308.898 223.82C306.618 223.7 304.308 223.64 301.968 223.64C299.628 223.64 297.258 223.7 294.858 223.82C292.518 223.88 290.748 223.94 289.548 224V222.11C291.648 222.11 293.118 221.66 293.958 220.76C294.858 219.86 295.308 218.15 295.308 215.63V164.33C295.308 161.63 294.888 159.65 294.048 158.39C293.268 157.07 291.768 156.41 289.548 156.41V154.52C291.468 154.7 293.328 154.79 295.128 154.79C297.588 154.79 299.928 154.7 302.148 154.52C304.368 154.28 306.408 153.95 308.268 153.53ZM336.745 153.53V215.63C336.745 218.15 337.165 219.86 338.005 220.76C338.905 221.66 340.405 222.11 342.505 222.11V224C341.365 223.94 339.655 223.88 337.375 223.82C335.095 223.7 332.785 223.64 330.445 223.64C328.105 223.64 325.735 223.7 323.335 223.82C320.995 223.88 319.225 223.94 318.025 224V222.11C320.125 222.11 321.595 221.66 322.435 220.76C323.335 219.86 323.785 218.15 323.785 215.63V164.33C323.785 161.63 323.365 159.65 322.525 158.39C321.745 157.07 320.245 156.41 318.025 156.41V154.52C319.945 154.7 321.805 154.79 323.605 154.79C326.065 154.79 328.405 154.7 330.625 154.52C332.845 154.28 334.885 153.95 336.745 153.53ZM358.754 224.63C356.054 224.63 353.804 224.12 352.004 223.1C350.204 222.08 348.884 220.73 348.044 219.05C347.204 217.31 346.784 215.42 346.784 213.38C346.784 210.8 347.354 208.7 348.494 207.08C349.694 205.46 351.224 204.14 353.084 203.12C354.944 202.1 356.894 201.26 358.934 200.6C361.034 199.94 363.014 199.31 364.874 198.71C366.794 198.05 368.324 197.3 369.464 196.46C370.664 195.56 371.264 194.42 371.264 193.04V186.02C371.264 184.46 370.994 183.08 370.454 181.88C369.974 180.62 369.194 179.66 368.114 179C367.094 178.34 365.744 178.01 364.064 178.01C362.864 178.01 361.664 178.19 360.464 178.55C359.264 178.85 358.274 179.39 357.494 180.17C359.174 180.77 360.464 181.7 361.364 182.96C362.324 184.16 362.804 185.54 362.804 187.1C362.804 189.14 362.084 190.76 360.644 191.96C359.264 193.16 357.614 193.76 355.694 193.76C353.534 193.76 351.884 193.1 350.744 191.78C349.664 190.4 349.124 188.75 349.124 186.83C349.124 185.09 349.544 183.65 350.384 182.51C351.284 181.37 352.514 180.29 354.074 179.27C355.754 178.31 357.764 177.56 360.104 177.02C362.504 176.48 365.084 176.21 367.844 176.21C370.604 176.21 373.094 176.51 375.314 177.11C377.534 177.65 379.394 178.67 380.894 180.17C382.274 181.55 383.174 183.26 383.594 185.3C384.014 187.28 384.224 189.8 384.224 192.86V217.34C384.224 218.84 384.374 219.89 384.674 220.49C384.974 221.03 385.484 221.3 386.204 221.3C386.744 221.3 387.254 221.15 387.734 220.85C388.274 220.55 388.844 220.19 389.444 219.77L390.344 221.3C389.084 222.38 387.614 223.22 385.934 223.82C384.314 224.36 382.484 224.63 380.444 224.63C378.224 224.63 376.454 224.33 375.134 223.73C373.814 223.07 372.854 222.2 372.254 221.12C371.714 220.04 371.444 218.78 371.444 217.34C370.004 219.62 368.264 221.42 366.224 222.74C364.184 224 361.694 224.63 358.754 224.63ZM365.144 218.87C366.344 218.87 367.424 218.6 368.384 218.06C369.404 217.46 370.364 216.5 371.264 215.18V196.73C370.724 197.63 369.974 198.44 369.014 199.16C368.054 199.88 367.034 200.63 365.954 201.41C364.874 202.13 363.824 202.94 362.804 203.84C361.844 204.74 361.064 205.85 360.464 207.17C359.864 208.49 359.564 210.08 359.564 211.94C359.564 214.28 360.074 216.02 361.094 217.16C362.114 218.3 363.464 218.87 365.144 218.87ZM423.876 176.21C425.796 176.21 427.356 176.63 428.556 177.47C429.756 178.25 430.626 179.27 431.166 180.53C431.766 181.79 432.066 183.11 432.066 184.49C432.066 186.71 431.406 188.54 430.086 189.98C428.826 191.36 427.146 192.05 425.046 192.05C422.946 192.05 421.296 191.54 420.096 190.52C418.956 189.44 418.386 188.03 418.386 186.29C418.386 184.61 418.746 183.23 419.466 182.15C420.246 181.01 421.206 180.05 422.346 179.27C421.506 179.03 420.666 179.06 419.826 179.36C418.686 179.54 417.606 180.02 416.586 180.8C415.566 181.52 414.696 182.45 413.976 183.59C413.256 184.67 412.686 185.87 412.266 187.19C411.846 188.45 411.636 189.68 411.636 190.88V214.73C411.636 217.61 412.326 219.56 413.706 220.58C415.146 221.6 417.276 222.11 420.096 222.11V224C418.716 223.94 416.706 223.88 414.066 223.82C411.426 223.7 408.666 223.64 405.786 223.64C403.386 223.64 400.956 223.7 398.496 223.82C396.036 223.88 394.176 223.94 392.916 224V222.11C395.016 222.11 396.486 221.66 397.326 220.76C398.226 219.86 398.676 218.15 398.676 215.63V187.28C398.676 184.58 398.256 182.6 397.416 181.34C396.636 180.02 395.136 179.36 392.916 179.36V177.47C394.836 177.65 396.696 177.74 398.496 177.74C401.016 177.74 403.356 177.65 405.516 177.47C407.736 177.23 409.776 176.9 411.636 176.48V184.85C412.356 183.23 413.316 181.76 414.516 180.44C415.716 179.12 417.096 178.1 418.656 177.38C420.216 176.6 421.956 176.21 423.876 176.21Z" fill="#003150"/>
<rect x="261" y="145" width="21" height="23" fill="white"/>
<rect x="264.1" y="154.5" width="15.4" height="13" fill="#003150"/>
<rect x="250" y="229" width="95" height="8" rx="2" fill="#003150"/>
<rect x="238" y="242" width="119" height="8" rx="2" fill="#003150"/>
<rect x="345" y="150" width="95" height="8" rx="2" transform="rotate(-180 345 150)" fill="#003150"/>
<rect x="357" y="137" width="119" height="8" rx="2" transform="rotate(-180 357 137)" fill="#003150"/>
</svg>
